Coordinates
version=1
nRows=11
nColumns=36
inDegrees=yes

Units are S.I. units (second, meters, Newtons, ...)
If the header above contains a line with 'inDegrees', this indicates whether rotational values are in degrees (yes) or radians (no).

endheader
time	pelvis_tilt	pelvis_list	pelvis_rotation	pelvis_tx	pelvis_ty	pelvis_tz	hip_flexion_r	hip_adduction_r	hip_rotation_r	knee_angle_r	knee_angle_r_beta	ankle_angle_r	subtalar_angle_r	mtp_angle_r	hip_flexion_l	hip_adduction_l	hip_rotation_l	knee_angle_l	knee_angle_l_beta	ankle_angle_l	subtalar_angle_l	mtp_angle_l	lumbar_extension	lumbar_bending	lumbar_rotation	arm_flex_r	arm_add_r	arm_rot_r	elbow_flex_r	pro_sup_r	arm_flex_l	arm_add_l	arm_rot_l	elbow_flex_l	pro_sup_l
      0.00000000	      0.77400242	     -2.03803693	      3.03812237	      0.42625542	      0.90088846	     -0.10195859	     -2.69091686	      0.35731933	      1.71143291	      3.27180103	      0.05710370	      6.04856130	    -14.49659612	     -6.23945679	     -2.45654661	     -5.92916434	      3.11394132	      2.63884697	      0.04605657	      8.97831199	     -5.42827441	     -6.23945679	     -5.41322612	      0.98496684	     -1.19420754	      7.10204369	    -10.34641308	     32.05321818	     23.07592039	     66.48871276	      1.74730217	    -10.92374189	     27.09296536	     26.58147110	     62.00475278
      0.01666670	     -0.25578748	     -1.97794186	      3.27313691	      0.42619937	      0.89501403	     -0.10381781	     -2.13377125	      0.61520138	      2.85808190	      2.60572200	      0.04547843	      8.55916168	    -13.36022849	     -6.57520104	     -1.30509607	     -5.38409298	      3.74195979	      2.59816076	      0.04534646	      9.04146561	     -5.77942882	     -6.57520104	     -3.25151685	      0.83740000	     -1.16402371	      6.65677401	    -10.64761468	     32.19416840	     23.58196345	     67.68612775	      1.75348179	    -11.06562859	     28.85456529	     26.77385068	     62.69564612
      0.03333330	     -1.04658601	     -1.77422345	      3.17213131	      0.42732899	      0.89606229	     -0.10148187	     -1.51021682	      0.55861715	      2.61989822	      2.04222672	      0.03564358	      8.86134982	    -13.64359853	     -6.75698231	     -0.57290108	     -5.17830246	      3.43756202	      2.50071332	      0.04364568	      8.88938606	     -5.65751810	     -6.75698231	     -2.36829710	      0.17142315	     -0.92444068	      6.25579093	    -10.20440146	     31.42407195	     24.15522727	     66.99678213	      1.89440652	    -11.39364562	     28.62336797	     27.03517040	     62.47647395
      0.05000000	     -0.85598735	     -1.67318359	      3.12557112	      0.42703417	      0.89758749	     -0.10243443	     -1.80161751	      0.44653616	      2.51052850	      1.81852489	      0.03173925	      9.23504653	    -13.49805980	     -7.09347330	     -1.09595246	     -5.04605074	      3.60055595	      1.91001595	      0.03333607	      8.90678263	     -5.76892675	     -7.09347330	     -2.71773831	     -0.06722445	     -0.22496720	      5.61930521	     -9.91357290	     27.31229862	     24.59383558	     74.60342757	      2.66619321	    -11.49163668	     29.69084660	     26.33177773	     65.60632671
      0.06666670	     -0.69234313	     -1.52188142	      2.97212676	      0.42804891	      0.89963893	     -0.10341789	     -2.07792926	      0.26107013	      2.36266021	      1.67794783	      0.02928571	      9.22473455	    -13.52812121	     -7.21665786	     -1.46325248	     -4.92558839	      3.60119137	      1.54681810	      0.02699707	      8.61216951	     -5.68308215	     -7.21665786	     -2.91640661	     -0.13917890	     -0.00576747	      5.53214698	     -9.78399569	     26.78225809	     24.80924401	     72.76995580	      2.59695403	    -11.26025373	     28.87977693	     26.24616168	     64.88071576
      0.08333330	     -0.66234346	     -1.46659823	      2.94089021	      0.42658364	      0.89606544	     -0.10153657	     -2.05587680	      0.24610345	      2.30513925	      1.63175212	      0.02847945	      9.35951254	    -13.60323075	     -7.21741130	     -1.51414925	     -4.86249215	      3.67450142	      1.46797874	      0.02562106	      8.77179680	     -5.70689892	     -7.21741130	     -2.88210940	     -0.18765845	      0.09623556	      5.59037331	     -9.68375373	     26.75049498	     24.85845861	     72.79922231	      2.62732244	    -11.28387569	     28.81864426	     26.23803557	     64.88819906
      0.10000000	     -0.31909940	     -1.36247190	      2.94164532	      0.42557951	      0.89753384	     -0.10185195	     -2.40113994	      0.13579796	      2.31676559	      1.55577646	      0.02715342	      9.41265570	    -13.60398855	     -7.38168894	     -1.91136119	     -4.76767907	      3.83715835	      1.36762108	      0.02386949	      8.93736836	     -5.65251291	     -7.38168894	     -3.33300644	     -0.20937122	      0.29335024	      5.29821940	     -9.28710247	     22.77321039	     25.23747575	     79.25881770	      2.53183847	    -10.85919452	     25.21907628	     26.35796381	     68.93752625
      0.11666670	     -0.29094658	     -1.34789218	      3.03316284	      0.42662047	      0.90096363	     -0.09941768	     -2.42636891	      0.16856774	      2.40762870	      1.52264408	      0.02657515	      9.34289882	    -13.53650641	     -7.38183495	     -1.94224016	     -4.82142143	      3.84854018	      1.36932533	      0.02389924	      8.88097646	     -5.64533725	     -7.38183495	     -3.29541270	     -0.23597614	      0.28856923	      5.26210305	     -9.17009246	     22.77400594	     25.24956033	     79.25746983	      2.58615002	    -10.92006154	     25.18205881	     26.34294603	     68.93278171
      0.13333330	      0.04503946	     -1.27878264	      2.98703796	      0.42491348	      0.90389246	     -0.10123380	     -2.83893587	      0.09319016	      2.11333330	      1.29568188	      0.02261391	      9.00548788	    -13.29201583	     -7.44331259	     -2.33326812	     -4.78995351	      3.69604981	      1.24256183	      0.02168680	      8.58777187	     -5.40808037	     -7.44331259	     -3.84376181	     -0.36763283	      0.29976089	      5.38745010	     -8.94466126	     22.60940503	     25.35780193	     73.98442788	      2.73848801	    -10.73200801	     23.74273928	     26.31285659	     66.33273491
      0.15000000	      0.08617753	     -1.26357844	      2.98628303	      0.42558738	      0.90145169	     -0.10209690	     -2.88788147	      0.04935362	      2.30516828	      1.19729627	      0.02089676	      8.60823164	    -13.78229549	     -7.47626701	     -2.34420129	     -4.80365755	      3.87490545	      1.21613688	      0.02122559	      8.37287407	     -5.71557963	     -7.47626701	     -3.89044098	     -0.39683684	      0.20660263	      5.43416636	     -8.78395389	     21.21701231	     25.23840665	     79.64400885	      2.67134862	    -10.58149736	     22.16709624	     26.20488278	     70.59144078
      0.16666670	      0.27459853	     -1.20052907	      2.93615254	      0.42315464	      0.90219222	     -0.10339664	     -3.01916127	     -0.10572173	      2.15483329	      1.14711967	      0.02002102	      8.19840366	    -13.99232391	     -7.48466152	     -2.47962623	     -4.69121635	      3.94593768	      1.22230731	      0.02133329	      8.22811036	     -5.71578778	     -7.48466152	     -4.24875363	     -0.40218131	      0.17544829	      5.65327766	     -8.89384501	     22.03487514	     25.30234209	     76.63013064	      2.89956564	    -10.54352600	     22.51800907	     26.16360630	     68.91712686
